<svg width="18" height="22" viewBox="0 0 18 22" fill="none" xmlns="http://www.w3.org/2000/svg">
<path d="M18 7.634C17.9883 7.53295 17.9657 7.43339 17.9325 7.337V7.238C17.8784 7.1249 17.8063 7.02093 17.7188 6.93L10.9688 0.33C10.8758 0.244438 10.7694 0.173889 10.6538 0.121C10.6202 0.116336 10.5861 0.116336 10.5525 0.121C10.4382 0.0569154 10.312 0.0157786 10.1813 0H3.375C2.47989 0 1.62145 0.347678 0.988515 0.966548C0.355579 1.58542 0 2.42479 0 3.3V18.7C0 19.5752 0.355579 20.4146 0.988515 21.0335C1.62145 21.6523 2.47989 22 3.375 22H14.625C15.5201 22 16.3786 21.6523 17.0115 21.0335C17.6444 20.4146 18 19.5752 18 18.7V7.7C18 7.7 18 7.7 18 7.634ZM11.25 3.751L14.1637 6.6H12.375C12.0766 6.6 11.7905 6.48411 11.5795 6.27782C11.3685 6.07153 11.25 5.79174 11.25 5.5V3.751ZM15.75 18.7C15.75 18.9917 15.6315 19.2715 15.4205 19.4778C15.2095 19.6841 14.9234 19.8 14.625 19.8H3.375C3.07663 19.8 2.79048 19.6841 2.5795 19.4778C2.36853 19.2715 2.25 18.9917 2.25 18.7V3.3C2.25 3.00826 2.36853 2.72847 2.5795 2.52218C2.79048 2.31589 3.07663 2.2 3.375 2.2H9V5.5C9 6.37521 9.35558 7.21458 9.98851 7.83345C10.6214 8.45232 11.4799 8.8 12.375 8.8H15.75V18.7ZM11.25 13.2H10.125V12.1C10.125 11.8083 10.0065 11.5285 9.7955 11.3222C9.58452 11.1159 9.29837 11 9 11C8.70163 11 8.41548 11.1159 8.2045 11.3222C7.99353 11.5285 7.875 11.8083 7.875 12.1V13.2H6.75C6.45163 13.2 6.16548 13.3159 5.9545 13.5222C5.74353 13.7285 5.625 14.0083 5.625 14.3C5.625 14.5917 5.74353 14.8715 5.9545 15.0778C6.16548 15.2841 6.45163 15.4 6.75 15.4H7.875V16.5C7.875 16.7917 7.99353 17.0715 8.2045 17.2778C8.41548 17.4841 8.70163 17.6 9 17.6C9.29837 17.6 9.58452 17.4841 9.7955 17.2778C10.0065 17.0715 10.125 16.7917 10.125 16.5V15.4H11.25C11.5484 15.4 11.8345 15.2841 12.0455 15.0778C12.2565 14.8715 12.375 14.5917 12.375 14.3C12.375 14.0083 12.2565 13.7285 12.0455 13.5222C11.8345 13.3159 11.5484 13.2 11.25 13.2Z" fill="#1DA1F2"/>
</svg>
