<svg width="53" height="55" viewBox="0 0 53 55" fill="none" xmlns="http://www.w3.org/2000/svg">
<path d="M26.5 6.875C15.5356 6.875 6.625 16.1219 6.625 27.5C6.625 38.8781 15.5356 48.125 26.5 48.125C37.4644 48.125 46.375 38.8781 46.375 27.5C46.375 16.1219 37.4644 6.875 26.5 6.875ZM26.5 44.6875C17.3741 44.6875 9.9375 36.9703 9.9375 27.5C9.9375 18.0297 17.3741 10.3125 26.5 10.3125C35.6259 10.3125 43.0625 18.0297 43.0625 27.5C43.0625 36.9703 35.6259 44.6875 26.5 44.6875Z" fill="#263238"/>
<path d="M33.9531 21.4844C33.9531 17.2219 30.6075 13.75 26.5 13.75C22.3925 13.75 19.0469 17.2219 19.0469 21.4844C19.0469 25.7469 22.3925 29.2188 26.5 29.2188C30.6075 29.2188 33.9531 25.7469 33.9531 21.4844ZM26.5 25.7812C24.2144 25.7812 22.3594 23.8562 22.3594 21.4844C22.3594 19.1125 24.2144 17.1875 26.5 17.1875C28.7857 17.1875 30.6406 19.1125 30.6406 21.4844C30.6406 23.8562 28.7857 25.7812 26.5 25.7812ZM26.5 29.2188C21.5644 29.2188 17.1753 32.4672 15.5522 37.2969C15.2541 38.1906 15.7013 39.1703 16.5791 39.4797C16.7613 39.5484 16.9435 39.5828 17.1256 39.5828C17.8047 39.5828 18.4506 39.1359 18.6825 38.4313C19.8419 34.9766 22.9888 32.6734 26.5 32.6734C30.0113 32.6734 33.0919 34.9422 34.2844 38.3109C34.5991 39.2047 35.5597 39.6687 36.4044 39.325C37.2656 38.9984 37.6963 38.0188 37.3816 37.125C35.7088 32.4156 31.3363 29.2359 26.5 29.2359V29.2188Z" fill="#263238"/>
</svg>
