<svg width="30" height="30" viewBox="0 0 30 30" fill="none" xmlns="http://www.w3.org/2000/svg">
<path d="M14 23.7753H5.5C5.08579 23.7753 4.75 24.1111 4.75 24.5253C4.75 24.9395 5.08579 25.2753 5.5 25.2753H14C14.4142 25.2753 14.75 24.9395 14.75 24.5253C14.75 24.1111 14.4142 23.7753 14 23.7753Z" fill="black"/>
<path d="M9 20.2753H5.5C5.08579 20.2753 4.75 20.6111 4.75 21.0253C4.75 21.4395 5.08579 21.7753 5.5 21.7753H9C9.41421 21.7753 9.75 21.4395 9.75 21.0253C9.75 20.6111 9.41421 20.2753 9 20.2753Z" fill="black"/>
<path d="M28.83 2.4853L27.01 0.635303C26.8093 0.433934 26.5709 0.274158 26.3083 0.165138C26.0458 0.0561189 25.7643 0 25.48 0C25.1957 0 24.9142 0.0561189 24.6517 0.165138C24.3891 0.274158 24.1507 0.433934 23.95 0.635303L22.04 2.5053L27.04 7.4253L28.92 5.5453C29.1222 5.34531 29.2794 5.1045 29.3811 4.83895C29.4829 4.57339 29.5268 4.28919 29.51 4.0053C29.4851 3.43056 29.2419 2.88695 28.83 2.4853ZM20.53 4.0153L12.68 11.8653C12.3296 12.2168 12.0719 12.6497 11.93 13.1253L11.12 15.8153C11.0176 16.1653 11.0129 16.5367 11.1063 16.8892C11.1997 17.2417 11.3877 17.5619 11.65 17.8153C11.8406 18.0096 12.0677 18.1643 12.3183 18.2707C12.5688 18.3771 12.8378 18.433 13.11 18.4353C13.2995 18.4353 13.4881 18.4084 13.67 18.3553L16.36 17.5453C16.8356 17.4034 17.2685 17.1457 17.62 16.7953L25.5 8.9153L20.53 4.0153Z" fill="black"/>
<path d="M21.95 29.2753H3.55C3.08381 29.2753 2.62218 29.1835 2.19147 29.0051C1.76077 28.8267 1.36942 28.5652 1.03977 28.2355C0.710123 27.9059 0.448632 27.5145 0.270228 27.0838C0.0918235 26.6531 0 26.1915 0 25.7253V7.32531C0 6.38379 0.374017 5.48083 1.03977 4.81508C1.70552 4.14932 2.60848 3.77531 3.55 3.77531H14C14.1989 3.77531 14.3897 3.85432 14.5303 3.99498C14.671 4.13563 14.75 4.32639 14.75 4.52531C14.75 4.72422 14.671 4.91498 14.5303 5.05564C14.3897 5.19629 14.1989 5.27531 14 5.27531H3.55C3.01957 5.27531 2.51086 5.48602 2.13579 5.86109C1.76071 6.23617 1.55 6.74487 1.55 7.27531V25.6753C1.55 26.2057 1.76071 26.7144 2.13579 27.0895C2.51086 27.4646 3.01957 27.6753 3.55 27.6753H21.95C22.4804 27.6753 22.9891 27.4646 23.3642 27.0895C23.7393 26.7144 23.95 26.2057 23.95 25.6753V15.2753C23.95 15.0764 24.029 14.8856 24.1697 14.745C24.3103 14.6043 24.5011 14.5253 24.7 14.5253C24.8989 14.5253 25.0897 14.6043 25.2303 14.745C25.371 14.8856 25.45 15.0764 25.45 15.2753V25.7253C25.4501 26.6582 25.0829 27.5537 24.428 28.218C23.773 28.8824 22.8828 29.2622 21.95 29.2753Z" fill="black"/>
</svg>
