<svg width="24" height="24" viewBox="0 0 24 24" fill="none" xmlns="http://www.w3.org/2000/svg">
<path d="M12 5C7.064 5 3.308 8.058 1 12C3.308 15.942 7.064 19 12 19C16.936 19 20.693 15.942 23 12C20.693 8.058 16.935 5 12 5ZM12 17C7.69 17 4.991 14.287 3.376 12C4.991 9.713 7.69 7 12 7C16.311 7 19.01 9.713 20.624 12C19.01 14.287 16.311 17 12 17Z" fill="#1DA1F2"/>
<path d="M12 15C13.6569 15 15 13.6569 15 12C15 10.3431 13.6569 9 12 9C10.3431 9 9 10.3431 9 12C9 13.6569 10.3431 15 12 15Z" fill="#1DA1F2"/>
</svg>

