<svg width="6" height="14" viewBox="0 0 6 14" fill="none" xmlns="http://www.w3.org/2000/svg">
<path d="M4.58609 0C5.46 0 5.89696 0.6384 5.89696 1.3699C5.89696 2.2834 5.13783 3.1283 4.14978 3.1283C3.32217 3.1283 2.83956 2.6033 2.86239 1.7353C2.86239 1.0052 3.43696 0 4.58609 0ZM1.89717 14C1.20717 14 0.701739 13.5436 1.18435 11.5332L1.97609 7.9688C2.1137 7.399 2.13652 7.1701 1.97609 7.1701C1.76935 7.1701 0.874565 7.5635 0.344348 7.952L0 7.336C1.67739 5.8058 3.60717 4.9091 4.43543 4.9091C5.12478 4.9091 5.23956 5.8002 4.89522 7.1701L3.98804 10.9165C3.82761 11.578 3.89609 11.8062 4.05717 11.8062C4.26391 11.8062 4.94217 11.5318 5.6087 10.9613L6 11.5311C4.36826 13.314 2.58587 14 1.89717 14Z" fill="#1DA1F2"/>
</svg>
