<svg width="20" height="19" viewBox="0 0 20 19" fill="none" xmlns="http://www.w3.org/2000/svg">
<path d="M19.5509 0.466925C19.2571 0.166302 18.8696 0 18.4571 0C18.1102 0 17.7695 0.124727 17.4976 0.345396L17.0288 0.72917H17.0226L17.0069 0.745161L5.99036 9.75105C5.98098 9.76065 5.96848 9.77344 5.95286 9.80222C5.94348 9.82461 5.9341 9.85019 5.93098 9.88218C5.93098 9.90136 5.9341 9.91735 5.93723 9.93654L3.49639 13.8606C3.48389 13.8638 3.47139 13.8638 3.45889 13.8702L1.26495 14.9992C1.21807 15.0247 1.18057 15.0663 1.16494 15.1175L0.00234395 18.7314C-0.000781317 18.7378 0.00234395 18.7442 0.00234395 18.7473C-0.000781317 18.7729 -0.000781317 18.7953 0.00234395 18.8209C0.00234395 18.8305 0.00234395 18.8369 0.00546922 18.8465C0.0117198 18.8753 0.0242208 18.9041 0.0460977 18.9296C0.0460977 18.9296 0.0460977 18.9296 0.049223 18.9296C0.049223 18.9296 0.049223 18.9296 0.049223 18.9328C0.0617241 18.9456 0.0773504 18.9552 0.0929768 18.9648C0.102353 18.9712 0.108603 18.9776 0.114854 18.9808C0.139856 18.9936 0.167983 19 0.196111 19C0.211737 19 0.224238 18.9968 0.239864 18.9936L3.99331 18.1333C4.04644 18.1205 4.0902 18.0885 4.11832 18.0438L5.43406 15.9202C5.44344 15.9074 5.44656 15.8914 5.44969 15.8754L9.3844 13.7423C9.40003 13.7455 9.41565 13.7519 9.43128 13.7519C9.47503 13.7519 9.51566 13.7391 9.54379 13.7167C9.55317 13.7103 9.56879 13.7007 9.57504 13.6879C9.58754 13.6751 9.59379 13.6687 9.59692 13.6623L19.1571 3.12776C19.1759 3.11496 19.1852 3.09897 19.1884 3.09578L19.5884 2.65763C20.151 2.04679 20.1353 1.06497 19.5509 0.466925ZM15.9631 2.12035L17.7507 4.08719L9.43128 13.253L6.41852 9.92055L15.9631 2.12035ZM17.3882 0.953038L17.7445 0.66201C17.9476 0.495708 18.2008 0.402962 18.4571 0.402962C18.7633 0.402962 19.0509 0.524491 19.2696 0.748359C19.704 1.19609 19.7165 1.92526 19.3009 2.3762L18.9915 2.7152L17.3882 0.953038ZM0.914923 18.4211L2.40568 17.0875C2.54319 17.1771 2.69945 17.2218 2.85571 17.2218C3.07448 17.2218 3.29325 17.1387 3.45889 16.966C3.61828 16.7997 3.70891 16.5822 3.70891 16.3488C3.70891 16.1153 3.61828 15.8946 3.45889 15.7315C3.13386 15.3989 2.57444 15.3989 2.24941 15.7315C2.0869 15.8946 1.99939 16.1153 1.99939 16.3488C1.99939 16.5119 2.04314 16.6622 2.1244 16.7965L0.608646 18.1525L1.5181 15.3222L3.56203 14.27L5.0434 15.7891L3.82767 17.7527L0.914923 18.4211Z" fill="#1DA1F2"/>
</svg>
