<svg width="30" height="29" viewBox="0 0 30 29" fill="none" xmlns="http://www.w3.org/2000/svg">
<path d="M15 13.7368C10.86 13.7368 7.5 17.1558 7.5 21.3684C7.5 25.5811 10.86 29 15 29C19.14 29 22.5 25.5811 22.5 21.3684C22.5 17.1558 19.14 13.7368 15 13.7368ZM15 25.9474C12.525 25.9474 10.5 23.8868 10.5 21.3684C10.5 18.85 12.525 16.7895 15 16.7895C17.475 16.7895 19.5 18.85 19.5 21.3684C19.5 23.8868 17.475 25.9474 15 25.9474ZM15 0C9.15 0 3.84 2.42684 0 6.33421L7.5 13.9658C9.42 12.0121 12.075 10.7911 15 10.7911C17.925 10.7911 20.58 11.9968 22.5 13.9505L30 6.31895C26.16 2.42684 20.85 0 15 0ZM22.26 9.87526C20.1 8.48632 17.61 7.73842 15 7.73842C12.39 7.73842 9.885 8.48631 7.725 9.89053L4.41 6.50211C7.485 4.25842 11.16 3.05263 15 3.05263C18.84 3.05263 22.5 4.25842 25.575 6.50211L22.26 9.87526Z" fill="white"/>
</svg>
