<svg width="45" height="40" viewBox="0 0 45 40" fill="none" xmlns="http://www.w3.org/2000/svg">
<g clip-path="url(#clip0_1779_820)">
<path d="M41.9638 11.4902C41.5614 11.1917 41.0728 10.9997 40.5536 10.9362C40.0344 10.8726 39.5055 10.9401 39.0274 11.1309L30.1356 14.6438L24.9585 6.36022C24.715 5.97046 24.3586 5.64569 23.9263 5.41958C23.494 5.19346 23.0016 5.07422 22.5 5.07422C21.9984 5.07422 21.5059 5.19346 21.0737 5.41958C20.6414 5.64569 20.285 5.97046 20.0414 6.36022L14.8641 14.6436L5.97104 11.1303C5.49256 10.9413 4.96423 10.8748 4.44553 10.9383C3.92683 11.0017 3.43835 11.1926 3.0351 11.4895C2.63184 11.7863 2.32981 12.1774 2.16301 12.6185C1.99621 13.0597 1.97127 13.5335 2.09098 13.9866L6.56379 30.9136C6.64889 31.2413 6.80826 31.5501 7.03216 31.8213C7.25606 32.0924 7.53979 32.3201 7.86601 32.4904C8.19394 32.6621 8.55732 32.7733 8.93457 32.8176C9.31183 32.862 9.69525 32.8384 10.0621 32.7485C18.199 30.7517 26.7923 30.751 34.9296 32.7463C35.2963 32.8362 35.6795 32.8597 36.0566 32.8153C36.4337 32.771 36.7969 32.6598 37.1247 32.4883C37.4507 32.3181 37.7344 32.0906 37.9583 31.8197C38.1822 31.5488 38.3416 31.2402 38.4269 30.9127L42.9074 13.9879C43.0293 13.5348 43.0055 13.0604 42.8386 12.6188C42.6718 12.1771 42.3686 11.7861 41.9638 11.4902Z" fill="url(#paint0_linear_1779_820)"/>
</g>
<defs>
<linearGradient id="paint0_linear_1779_820" x1="23" y1="19.0004" x2="76" y2="19.0004" gradientUnits="userSpaceOnUse">
<stop stop-color="#D4AF37"/>
<stop offset="1" stop-color="white"/>
</linearGradient>
<clipPath id="clip0_1779_820">
<rect width="45" height="40" fill="white"/>
</clipPath>
</defs>
</svg>
