<svg width="6" height="24" viewBox="0 0 6 24" fill="none" xmlns="http://www.w3.org/2000/svg">
<path fill="#263238" d="M3 5.33333C3.59334 5.33333 4.17336 5.17694 4.66671 4.88392C5.16006 4.5909 5.54457 4.17443 5.77164 3.68716C5.9987 3.19989 6.05811 2.66371 5.94235 2.14643C5.8266 1.62914 5.54088 1.15399 5.12132 0.781049C4.70176 0.408109 4.16721 0.154134 3.58527 0.0512404C3.00333 -0.0516535 2.40013 0.00115542 1.85195 0.202989C1.30377 0.404823 0.835237 0.746616 0.505593 1.18515C0.175949 1.62368 1.61668e-06 2.13925 1.61668e-06 2.66667C1.61668e-06 3.37391 0.316073 4.05219 0.878681 4.55229C1.44129 5.05238 2.20435 5.33333 3 5.33333ZM3 18.6667C2.40666 18.6667 1.82664 18.8231 1.33329 19.1161C0.839943 19.4091 0.455425 19.8256 0.228363 20.3128C0.00129984 20.8001 -0.0581101 21.3363 0.0576455 21.8536C0.173401 22.3709 0.459124 22.846 0.878681 23.2189C1.29824 23.5919 1.83279 23.8459 2.41473 23.9488C2.99667 24.0517 3.59987 23.9988 4.14805 23.797C4.69623 23.5952 5.16476 23.2534 5.49441 22.8149C5.82405 22.3763 6 21.8607 6 21.3333C6 20.6261 5.68393 19.9478 5.12132 19.4477C4.55871 18.9476 3.79565 18.6667 3 18.6667ZM3 9.33333C2.40666 9.33333 1.82664 9.48973 1.33329 9.78275C0.839943 10.0758 0.455425 10.4922 0.228363 10.9795C0.00129984 11.4668 -0.0581101 12.003 0.0576455 12.5202C0.173401 13.0375 0.459124 13.5127 0.878681 13.8856C1.29824 14.2586 1.83279 14.5125 2.41473 14.6154C2.99667 14.7183 3.59987 14.6655 4.14805 14.4637C4.69623 14.2618 5.16476 13.9201 5.49441 13.4815C5.82405 13.043 6 12.5274 6 12C6 11.2928 5.68393 10.6145 5.12132 10.1144C4.55871 9.61429 3.79565 9.33333 3 9.33333Z" />
</svg>
