<svg width="50" height="50" viewBox="0 0 50 50" fill="none" xmlns="http://www.w3.org/2000/svg">
<path fill-rule="evenodd" clip-rule="evenodd" d="M6.25 6.25H38.5417V11.4583H36.4583V8.33333H8.33333V32.2917H30.6116V34.375H6.25V6.25ZM37.5 19.7917C39.2259 19.7917 40.625 18.3926 40.625 16.6667C40.625 14.9407 39.2259 13.5417 37.5 13.5417C35.7741 13.5417 34.375 14.9407 34.375 16.6667C34.375 18.3926 35.7741 19.7917 37.5 19.7917ZM39.616 21.8861C40.9686 21.8861 42.0398 22.4934 42.7399 23.4332C43.3953 24.313 43.6727 25.4025 43.7355 26.407C43.7992 27.4269 43.6517 28.4958 43.3223 29.448C43.0084 30.3549 42.4807 31.2923 41.6667 31.9353V42.1875C41.6667 43.0005 41.0432 43.6776 40.233 43.7447C39.4228 43.8118 38.6966 43.2463 38.5629 42.4444L37.218 34.375H36.9087L35.3899 42.4754C35.2412 43.2685 34.513 43.818 33.7096 43.7433C32.9061 43.6686 32.2917 42.9944 32.2917 42.1875V27.3258C32.1744 27.5046 32.0657 27.6721 31.9699 27.821C31.8465 28.0127 31.745 28.1722 31.6748 28.2833L31.5941 28.4115L31.5734 28.4444L31.5674 28.4542C31.2821 28.912 30.7805 29.1906 30.241 29.1906H25.0327C24.1698 29.1906 23.4702 28.4911 23.4702 27.6281C23.4702 26.7652 24.1698 26.0656 25.0327 26.0656H29.3833C29.636 25.6742 29.9693 25.166 30.3195 24.6551C30.6844 24.1226 31.0867 23.5593 31.444 23.1182C31.6186 22.9025 31.8139 22.677 32.0096 22.4921C32.1054 22.4017 32.2393 22.2846 32.401 22.1807C32.5165 22.1067 32.8724 21.8861 33.366 21.8861H39.616Z" fill="white"/>
</svg>
